# xmcd
#
# Track frame offsets:
#	150
#	22048
#	40284
#	83495
#	101302
#	143266
#	182641
#	206328
#	243099
#
# Disc length: 3543 seconds
# Revision: 0
# Processed by: cddbd v1.5.2PL0 Copyright (c) Steve Scherf et al.
# Submitted via: dBpowerAMP V12.0
#
DISCID=600dd509
DTITLE=Oli Brown - Songs From The Road
DYEAR=2013
DGENRE=Blues
TTITLE0=Speechless
TTITLE1=Thinking About Her
TTITLE2=Manic Bloom
TTITLE3=Next Girl
TTITLE4=Mr. Wilson
TTITLE5=Love Is Taking It's Toll
TTITLE6=Devil In Me
TTITLE7=You Can Only Blame Yourself
TTITLE8=Stone Cold
EXTD=
EXTT0=
EXTT1=
EXTT2=
EXTT3=
EXTT4=
EXTT5=
EXTT6=
EXTT7=
EXTT8=
PLAYORDER=
